<?xml version="1.0" standalone="no"?>
<!DOCTYPE svg PUBLIC "-//W3C//DTD SVG 20010904//EN"
 "http://www.w3.org/TR/2001/REC-SVG-20010904/DTD/svg10.dtd">
<svg version="1.0" xmlns="http://www.w3.org/2000/svg"
 width="479.000000pt" height="71.000000pt" viewBox="0 0 479.000000 71.000000"
 preserveAspectRatio="xMidYMid meet">
<metadata>
Created by potrace 1.16, written by Peter Selinger 2001-2019
</metadata>
<g transform="translate(0.000000,71.000000) scale(0.100000,-0.100000)"
fill="#000000" stroke="none">
<path d="M223 700 c-101 -21 -180 -90 -207 -181 -21 -69 -21 -257 -1 -325 19
-65 72 -126 137 -158 97 -49 253 -31 327 37 33 31 71 115 71 160 l0 37 -85 0
c-79 0 -85 -1 -85 -21 0 -11 -14 -34 -30 -51 -28 -28 -36 -30 -78 -25 -84 9
-112 78 -99 241 5 63 10 74 37 99 57 51 150 27 165 -43 l7 -30 84 0 84 0 0 33
c-1 44 -22 100 -55 143 -50 65 -175 104 -272 84z"/>
<path d="M1643 700 c-80 -17 -139 -60 -179 -132 -29 -52 -29 -55 -29 -213 0
-182 8 -210 83 -277 60 -54 116 -71 216 -66 72 4 92 9 133 34 60 37 101 102
110 172 l6 52 -86 0 -85 0 -7 -30 c-16 -71 -108 -94 -167 -41 -32 29 -33 31
-36 126 -2 53 -1 112 3 132 9 51 48 83 99 83 52 0 83 -21 94 -63 l8 -32 87 -3
c85 -3 87 -2 87 20 0 41 -22 102 -51 145 -51 73 -179 115 -286 93z"/>
<path d="M2326 694 c-70 -22 -149 -103 -170 -174 -18 -62 -22 -254 -6 -312 18
-62 71 -130 129 -165 136 -81 305 -34 385 107 31 55 31 56 31 205 0 143 -1
152 -27 200 -14 28 -39 62 -55 76 -73 68 -190 94 -287 63z m165 -183 c29 -29
29 -31 29 -146 0 -131 -11 -165 -59 -185 -42 -17 -95 -5 -121 27 -18 23 -20
40 -20 150 0 124 0 125 29 154 23 23 38 29 71 29 33 0 48 -6 71 -29z"/>
<path d="M4525 700 c-50 -8 -92 -30 -127 -67 -51 -53 -58 -87 -58 -278 0 -191
7 -224 58 -279 66 -70 185 -87 273 -40 52 29 93 80 109 135 6 19 10 101 10
184 0 163 -6 199 -45 254 -48 70 -131 104 -220 91z m110 -49 c22 -10 51 -30
64 -44 23 -25 23 -26 5 -49 -189 -237 -319 -387 -326 -376 -4 7 -8 84 -8 171
0 168 8 207 53 256 30 32 94 61 137 61 19 0 53 -9 75 -19z m115 -294 c0 -180
0 -184 -26 -223 -34 -52 -79 -82 -137 -90 -58 -8 -121 14 -161 55 l-27 28 168
206 c92 114 171 207 176 207 4 0 7 -82 7 -183z"/>
<path d="M3755 681 c-102 -46 -153 -175 -110 -279 38 -90 145 -153 237 -138
46 8 51 19 -54 -126 -43 -59 -78 -110 -78 -113 0 -3 8 -5 18 -5 20 0 262 324
287 384 42 100 -8 227 -108 275 -55 26 -137 27 -192 2z m171 -30 c95 -43 136
-165 86 -256 -16 -30 -64 -72 -95 -84 -39 -15 -101 -14 -140 3 -57 23 -117
111 -117 171 0 30 24 88 47 116 55 64 143 85 219 50z"/>
<path d="M890 605 l0 -85 95 0 95 0 0 -129 c0 -147 -10 -185 -52 -207 -57 -30
-120 -1 -137 62 -7 29 -8 29 -96 32 l-88 3 7 -42 c8 -48 35 -104 71 -147 70
-83 220 -108 326 -54 60 30 112 91 129 150 5 20 10 140 10 270 l0 232 -180 0
-180 0 0 -85z"/>
<path d="M2870 355 l0 -335 273 2 272 3 3 333 c2 326 2 332 -18 332 -19 0 -20
-8 -22 -224 l-3 -224 -230 224 c-158 154 -237 223 -252 224 l-23 0 0 -335z"/>
</g>
</svg>
